# xmcd
#
# Track frame offsets:
#	150
#	15276
#	25763
#	41765
#	53154
#	68705
#	78857
#	94524
#	110340
#	133281
#	154430
#
# Disc length: 2800 seconds
#
# Revision: 1
# Processed by: cddbd v1.5.1PL0 Copyright (c) Steve Scherf et al.
# Submitted via: audiograbber 1.83.01
#
DISCID=830aee0b
DTITLE=Greenhorns - Tem, kteri uz tu nejsou
DYEAR=1900
DGENRE=Country
TTITLE0=Nejvetsi role Cliftona Jamese
TTITLE1=Plac,plac,plac
TTITLE2=Dej mi jeste drink
TTITLE3=Hej strojvudce
TTITLE4=Nerikej ne
TTITLE5=Bye,bye-pass
TTITLE6=Vlak pulnocni
TTITLE7=Proc jsi smutna,modra hvezdo Virginia
TTITLE8=Dym tahne k mrakum
TTITLE9=Zelene louky domova
TTITLE10=Smes pisni z repertoaru Johnnyho Cashe
EXTD=
EXTT0=
EXTT1=
EXTT2=
EXTT3=
EXTT4=
EXTT5=
EXTT6=
EXTT7=
EXTT8=
EXTT9=
EXTT10=
PLAYORDER=
